<?xml version="1.0" standalone="no"?>
<!DOCTYPE svg PUBLIC "-//W3C//DTD SVG 20010904//EN"
 "http://www.w3.org/TR/2001/REC-SVG-20010904/DTD/svg10.dtd">
<svg version="1.0" xmlns="http://www.w3.org/2000/svg"
 width="400.000000pt" height="400.000000pt" viewBox="0 0 400.000000 400.000000"
 preserveAspectRatio="xMidYMid meet">
<metadata>
Created by potrace 1.14, written by Peter Selinger 2001-2017
</metadata>
<g transform="translate(0.000000,400.000000) scale(0.100000,-0.100000)"
fill="#000000" stroke="none">
<path d="M0 2000 l0 -2000 2000 0 2000 0 0 2000 0 2000 -2000 0 -2000 0 0
-2000z m2450 1371 c12 -1 14 -13 12 -61 -3 -40 0 -60 8 -60 6 0 9 -4 6 -8 -2
-4 22 -5 55 -2 32 3 59 2 59 -2 0 -4 36 -8 80 -8 l80 0 0 -75 0 -75 150 0 150
0 0 -75 0 -75 75 0 75 0 0 -220 0 -220 -75 0 -75 0 0 70 0 70 -75 0 -75 0 0
-75 0 -75 75 0 75 0 0 -520 0 -520 -75 0 -75 0 0 -75 0 -76 -72 3 -73 3 -3 73
-3 72 -144 0 -145 0 0 -75 0 -75 145 0 145 0 0 -76 0 -77 -247 7 c-137 3 -303
7 -370 7 l-122 1 1 72 1 71 -74 5 -74 5 -1 30 c-1 17 -2 50 -3 75 l-1 45 -71
-2 -71 -1 2 56 c1 31 2 63 1 70 -1 8 -25 12 -83 12 l-81 0 6 208 c4 114 7 213
7 220 0 8 21 12 70 12 l70 0 0 -145 0 -145 75 0 75 0 0 -75 0 -75 75 0 75 0 0
150 0 150 75 0 75 0 0 75 0 75 75 0 75 0 0 70 0 69 148 3 c166 3 149 -7 151
96 l1 52 145 0 146 0 -3 78 -3 77 -69 5 -70 5 -1 65 c-1 36 -3 100 -4 143 l-1
77 -75 0 -75 0 0 -75 0 -75 -70 0 -70 0 0 75 0 75 -75 0 -75 0 0 75 0 75 -150
0 -150 0 0 -75 0 -75 -75 0 -75 0 0 -295 0 -295 -75 0 -75 0 0 70 0 70 -70 0
-69 0 -3 -72 -3 -73 -77 -3 -78 -3 0 75 0 75 -72 3 -73 3 -5 145 -5 145 -67 3
-68 3 0 224 0 225 75 0 75 0 0 75 0 75 145 0 145 0 0 69 c0 38 5 71 10 73 8 2
821 1 880 -1z m132 -48 c-2 -36 0 -44 7 -33 9 13 11 12 11 -3 0 -32 -25 -12
-28 22 -3 29 2 61 10 61 2 0 2 -21 0 -47z m-62 -63 c12 -8 9 -10 -12 -10 -15
0 -30 5 -33 10 -8 13 25 13 45 0z m-1400 -1595 l0 -75 -75 0 -75 0 0 75 0 75
75 0 75 0 0 -75z m738 -447 l-3 -73 -70 0 -70 0 -3 73 -3 72 76 0 76 0 -3 -72z
m152 -148 l0 -70 -75 0 -75 0 0 70 0 70 75 0 75 0 0 -70z m590 -150 l0 -70
-295 0 -295 0 0 70 0 70 295 0 295 0 0 -70z"/>
<path d="M2367 3222 l-58 -3 3 -67 3 -67 68 -3 67 -3 0 69 c0 47 -4 71 -12 73
-7 2 -39 3 -71 1z"/>
<path d="M1420 2485 l0 -145 70 0 70 0 0 145 0 145 -70 0 -70 0 0 -145z"/>
<path d="M2750 2040 l0 -150 75 0 75 0 0 150 0 150 -75 0 -75 0 0 -150z"/>
<path d="M2310 1890 l0 -150 75 0 75 0 0 150 0 150 -75 0 -75 0 0 -150z"/>
<path d="M2600 1665 l0 -75 80 0 80 0 0 75 0 75 -80 0 -80 0 0 -75z"/>
</g>
</svg>
